<mxfile host="65bd71144e">
    <diagram id="ZJXFxkx9vZS4wmygSB2Z" name="Página-1">
        <mxGraphModel dx="1713" dy="1376" grid="1" gridSize="10" guides="1" tooltips="1" connect="1" arrows="1" fold="1" page="1" pageScale="1" pageWidth="1169" pageHeight="827" math="0" shadow="0">
            <root>
                <mxCell id="0"/>
                <mxCell id="1" parent="0"/>
                <mxCell id="16" style="edgeStyle=orthogonalEdgeStyle;html=1;entryX=0.5;entryY=1;entryDx=0;entryDy=0;" edge="1" parent="1" source="2" target="7">
                    <mxGeometry relative="1" as="geometry">
                        <Array as="points">
                            <mxPoint x="190" y="90"/>
                            <mxPoint x="190" y="330"/>
                            <mxPoint x="350" y="330"/>
                        </Array>
                    </mxGeometry>
                </mxCell>
                <mxCell id="2" value="Desenvolvedor" style="image;html=1;image=img/lib/clip_art/people/Suit_Man_128x128.png" parent="1" vertex="1">
                    <mxGeometry x="50" y="50" width="80" height="80" as="geometry"/>
                </mxCell>
                <mxCell id="19" style="edgeStyle=orthogonalEdgeStyle;shape=link;html=1;entryX=0.5;entryY=0;entryDx=0;entryDy=0;" edge="1" parent="1" source="4" target="14">
                    <mxGeometry relative="1" as="geometry"/>
                </mxCell>
                <mxCell id="4" value="Rota e Certificado" style="swimlane;whiteSpace=wrap;html=1;" parent="1" vertex="1">
                    <mxGeometry x="600" y="60" width="200" height="200" as="geometry"/>
                </mxCell>
                <mxCell id="5" value="&lt;h1&gt;&amp;lt;JSON API&amp;gt;&lt;/h1&gt;&lt;p&gt;Lorem ipsum dolor sit amet, consectetur adipisicing elit, sed do eiusmod tempor incididunt ut labore et dolore magna aliqua.&lt;/p&gt;" style="text;html=1;strokeColor=none;fillColor=none;spacing=5;spacingTop=-20;whiteSpace=wrap;overflow=hidden;rounded=0;" parent="4" vertex="1">
                    <mxGeometry x="5" y="40" width="190" height="120" as="geometry"/>
                </mxCell>
                <mxCell id="7" value="Aplicação do desenvolvedor" style="swimlane;whiteSpace=wrap;html=1;" parent="1" vertex="1">
                    <mxGeometry x="250" y="60" width="200" height="200" as="geometry"/>
                </mxCell>
                <mxCell id="10" value="&lt;h1&gt;&amp;lt;CODE&amp;gt;&lt;/h1&gt;&lt;p&gt;Lorem ipsum dolor sit amet, consectetur adipisicing elit, sed do eiusmod tempor incididunt ut labore et dolore magna aliqua.&lt;/p&gt;" style="text;html=1;strokeColor=none;fillColor=none;spacing=5;spacingTop=-20;whiteSpace=wrap;overflow=hidden;rounded=0;" parent="7" vertex="1">
                    <mxGeometry x="5" y="40" width="190" height="120" as="geometry"/>
                </mxCell>
                <mxCell id="11" value="" style="sketch=0;pointerEvents=1;shadow=0;dashed=0;html=1;strokeColor=none;fillColor=#505050;labelPosition=center;verticalLabelPosition=bottom;verticalAlign=top;outlineConnect=0;align=center;shape=mxgraph.office.services.online_hosted_services;" parent="1" vertex="1">
                    <mxGeometry x="425" y="240" width="56" height="52" as="geometry"/>
                </mxCell>
                <mxCell id="12" value="" style="sketch=0;pointerEvents=1;shadow=0;dashed=0;html=1;strokeColor=none;fillColor=#505050;labelPosition=center;verticalLabelPosition=bottom;verticalAlign=top;outlineConnect=0;align=center;shape=mxgraph.office.services.registrar_service;" parent="1" vertex="1">
                    <mxGeometry x="780" y="240" width="56" height="52" as="geometry"/>
                </mxCell>
                <mxCell id="13" value="" style="sketch=0;pointerEvents=1;shadow=0;dashed=0;html=1;strokeColor=none;fillColor=#505050;labelPosition=center;verticalLabelPosition=bottom;verticalAlign=top;outlineConnect=0;align=center;shape=mxgraph.office.servers.database_server_green;" parent="1" vertex="1">
                    <mxGeometry x="780" y="520" width="43" height="56" as="geometry"/>
                </mxCell>
                <mxCell id="14" value="Rota e Certificado" style="swimlane;whiteSpace=wrap;html=1;" parent="1" vertex="1">
                    <mxGeometry x="600" y="350" width="200" height="200" as="geometry"/>
                </mxCell>
                <mxCell id="15" value="&lt;h1&gt;&amp;lt;QUERY DB&amp;gt;&lt;/h1&gt;&lt;p&gt;Lorem ipsum dolor sit amet, consectetur adipisicing elit, sed do eiusmod tempor incididunt ut labore et dolore magna aliqua.&lt;/p&gt;" style="text;html=1;strokeColor=none;fillColor=none;spacing=5;spacingTop=-20;whiteSpace=wrap;overflow=hidden;rounded=0;" parent="14" vertex="1">
                    <mxGeometry x="5" y="40" width="190" height="120" as="geometry"/>
                </mxCell>
                <mxCell id="17" style="edgeStyle=orthogonalEdgeStyle;html=1;entryX=0;entryY=0.5;entryDx=0;entryDy=0;shape=link;" edge="1" parent="1" source="10" target="5">
                    <mxGeometry relative="1" as="geometry">
                        <mxPoint x="610" y="160" as="targetPoint"/>
                    </mxGeometry>
                </mxCell>
            </root>
        </mxGraphModel>
    </diagram>
</mxfile>